<mxfile host="Electron" agent="Mozilla/5.0 (Windows NT 10.0; Win64; x64) AppleWebKit/537.36 (KHTML, like Gecko) draw.io/26.0.16 Chrome/132.0.6834.196 Electron/34.2.0 Safari/537.36" version="26.0.16">
  <diagram id="8VWvvGY1cF5U3E-14aae" name="Page-2">
    <mxGraphModel dx="1500" dy="887" grid="1" gridSize="10" guides="1" tooltips="1" connect="1" arrows="1" fold="1" page="1" pageScale="1" pageWidth="850" pageHeight="1100" background="light-dark(#14aaf5, #121212)" math="0" shadow="0">
      <root>
        <mxCell id="0" />
        <mxCell id="1" parent="0" />
        <mxCell id="DBRWBmC5buPoE4Ncm24H-20" style="edgeStyle=orthogonalEdgeStyle;rounded=0;orthogonalLoop=1;jettySize=auto;html=1;exitX=0.5;exitY=1;exitDx=0;exitDy=0;exitPerimeter=0;entryX=0.5;entryY=0;entryDx=0;entryDy=0;" parent="1" source="DBRWBmC5buPoE4Ncm24H-1" target="DBRWBmC5buPoE4Ncm24H-19" edge="1">
          <mxGeometry relative="1" as="geometry" />
        </mxCell>
        <mxCell id="DBRWBmC5buPoE4Ncm24H-1" value="Start" style="strokeWidth=2;html=1;shape=mxgraph.flowchart.start_1;whiteSpace=wrap;" parent="1" vertex="1">
          <mxGeometry x="360" y="40" width="100" height="60" as="geometry" />
        </mxCell>
        <mxCell id="DBRWBmC5buPoE4Ncm24H-26" style="edgeStyle=orthogonalEdgeStyle;rounded=0;orthogonalLoop=1;jettySize=auto;html=1;exitX=0.5;exitY=1;exitDx=0;exitDy=0;entryX=0.5;entryY=0;entryDx=0;entryDy=0;" parent="1" source="DBRWBmC5buPoE4Ncm24H-19" target="DBRWBmC5buPoE4Ncm24H-25" edge="1">
          <mxGeometry relative="1" as="geometry" />
        </mxCell>
        <mxCell id="DBRWBmC5buPoE4Ncm24H-19" value="Input Pengguna" style="shape=parallelogram;html=1;strokeWidth=2;perimeter=parallelogramPerimeter;whiteSpace=wrap;rounded=1;arcSize=12;size=0.23;" parent="1" vertex="1">
          <mxGeometry x="345" y="160" width="130" height="60" as="geometry" />
        </mxCell>
        <mxCell id="DBRWBmC5buPoE4Ncm24H-25" value="Input Passwod" style="shape=parallelogram;html=1;strokeWidth=2;perimeter=parallelogramPerimeter;whiteSpace=wrap;rounded=1;arcSize=12;size=0.23;" parent="1" vertex="1">
          <mxGeometry x="350" y="280" width="120" height="60" as="geometry" />
        </mxCell>
        <mxCell id="DBRWBmC5buPoE4Ncm24H-31" style="edgeStyle=orthogonalEdgeStyle;rounded=0;orthogonalLoop=1;jettySize=auto;html=1;exitX=0.5;exitY=1;exitDx=0;exitDy=0;exitPerimeter=0;entryX=0.5;entryY=0;entryDx=0;entryDy=0;" parent="1" source="DBRWBmC5buPoE4Ncm24H-28" target="DBRWBmC5buPoE4Ncm24H-30" edge="1">
          <mxGeometry relative="1" as="geometry" />
        </mxCell>
        <mxCell id="DBRWBmC5buPoE4Ncm24H-32" value="True" style="edgeLabel;html=1;align=center;verticalAlign=middle;resizable=0;points=[];" parent="DBRWBmC5buPoE4Ncm24H-31" vertex="1" connectable="0">
          <mxGeometry x="-0.2333" y="1" relative="1" as="geometry">
            <mxPoint as="offset" />
          </mxGeometry>
        </mxCell>
        <mxCell id="DBRWBmC5buPoE4Ncm24H-33" style="edgeStyle=orthogonalEdgeStyle;rounded=0;orthogonalLoop=1;jettySize=auto;html=1;exitX=1;exitY=0.5;exitDx=0;exitDy=0;exitPerimeter=0;entryX=1;entryY=0.5;entryDx=0;entryDy=0;" parent="1" source="DBRWBmC5buPoE4Ncm24H-28" target="DBRWBmC5buPoE4Ncm24H-19" edge="1">
          <mxGeometry relative="1" as="geometry">
            <Array as="points">
              <mxPoint x="560" y="450" />
              <mxPoint x="560" y="190" />
            </Array>
          </mxGeometry>
        </mxCell>
        <mxCell id="DBRWBmC5buPoE4Ncm24H-34" value="False" style="edgeLabel;html=1;align=center;verticalAlign=middle;resizable=0;points=[];" parent="DBRWBmC5buPoE4Ncm24H-33" vertex="1" connectable="0">
          <mxGeometry x="-0.7982" y="-1" relative="1" as="geometry">
            <mxPoint as="offset" />
          </mxGeometry>
        </mxCell>
        <mxCell id="DBRWBmC5buPoE4Ncm24H-28" value="Mengecek validasi" style="strokeWidth=2;html=1;shape=mxgraph.flowchart.decision;whiteSpace=wrap;" parent="1" vertex="1">
          <mxGeometry x="360" y="400" width="100" height="100" as="geometry" />
        </mxCell>
        <mxCell id="DBRWBmC5buPoE4Ncm24H-29" style="edgeStyle=orthogonalEdgeStyle;rounded=0;orthogonalLoop=1;jettySize=auto;html=1;exitX=0.5;exitY=1;exitDx=0;exitDy=0;entryX=0.5;entryY=0;entryDx=0;entryDy=0;entryPerimeter=0;" parent="1" source="DBRWBmC5buPoE4Ncm24H-25" target="DBRWBmC5buPoE4Ncm24H-28" edge="1">
          <mxGeometry relative="1" as="geometry" />
        </mxCell>
        <mxCell id="DBRWBmC5buPoE4Ncm24H-36" style="edgeStyle=orthogonalEdgeStyle;rounded=0;orthogonalLoop=1;jettySize=auto;html=1;exitX=0.5;exitY=1;exitDx=0;exitDy=0;" parent="1" source="DBRWBmC5buPoE4Ncm24H-30" target="DBRWBmC5buPoE4Ncm24H-35" edge="1">
          <mxGeometry relative="1" as="geometry" />
        </mxCell>
        <mxCell id="DBRWBmC5buPoE4Ncm24H-30" value="Input Kode&lt;div&gt;Sandi&lt;/div&gt;" style="shape=parallelogram;html=1;strokeWidth=2;perimeter=parallelogramPerimeter;whiteSpace=wrap;rounded=1;arcSize=12;size=0.23;" parent="1" vertex="1">
          <mxGeometry x="360" y="560" width="100" height="60" as="geometry" />
        </mxCell>
        <mxCell id="DBRWBmC5buPoE4Ncm24H-40" style="edgeStyle=orthogonalEdgeStyle;rounded=0;orthogonalLoop=1;jettySize=auto;html=1;exitX=1;exitY=0.5;exitDx=0;exitDy=0;exitPerimeter=0;" parent="1" source="DBRWBmC5buPoE4Ncm24H-35" target="DBRWBmC5buPoE4Ncm24H-41" edge="1">
          <mxGeometry relative="1" as="geometry">
            <mxPoint x="580" y="740" as="targetPoint" />
          </mxGeometry>
        </mxCell>
        <mxCell id="DBRWBmC5buPoE4Ncm24H-43" value="False" style="edgeLabel;html=1;align=center;verticalAlign=middle;resizable=0;points=[];" parent="DBRWBmC5buPoE4Ncm24H-40" vertex="1" connectable="0">
          <mxGeometry x="-0.3027" y="1" relative="1" as="geometry">
            <mxPoint as="offset" />
          </mxGeometry>
        </mxCell>
        <mxCell id="DBRWBmC5buPoE4Ncm24H-35" value="Kode Sandi&amp;nbsp;&lt;div&gt;&amp;gt;100&lt;/div&gt;" style="strokeWidth=2;html=1;shape=mxgraph.flowchart.decision;whiteSpace=wrap;" parent="1" vertex="1">
          <mxGeometry x="360" y="690" width="100" height="100" as="geometry" />
        </mxCell>
        <mxCell id="DBRWBmC5buPoE4Ncm24H-46" style="edgeStyle=orthogonalEdgeStyle;rounded=0;orthogonalLoop=1;jettySize=auto;html=1;exitX=0.5;exitY=1;exitDx=0;exitDy=0;exitPerimeter=0;entryX=0.5;entryY=0;entryDx=0;entryDy=0;" parent="1" source="DBRWBmC5buPoE4Ncm24H-38" target="DBRWBmC5buPoE4Ncm24H-51" edge="1">
          <mxGeometry relative="1" as="geometry">
            <mxPoint x="410" y="1000" as="targetPoint" />
          </mxGeometry>
        </mxCell>
        <mxCell id="DBRWBmC5buPoE4Ncm24H-47" value="True" style="edgeLabel;html=1;align=center;verticalAlign=middle;resizable=0;points=[];" parent="DBRWBmC5buPoE4Ncm24H-46" vertex="1" connectable="0">
          <mxGeometry x="-0.0467" relative="1" as="geometry">
            <mxPoint as="offset" />
          </mxGeometry>
        </mxCell>
        <mxCell id="DBRWBmC5buPoE4Ncm24H-49" style="edgeStyle=orthogonalEdgeStyle;rounded=0;orthogonalLoop=1;jettySize=auto;html=1;exitX=1;exitY=0.5;exitDx=0;exitDy=0;exitPerimeter=0;entryX=0;entryY=0.5;entryDx=0;entryDy=0;" parent="1" source="DBRWBmC5buPoE4Ncm24H-38" target="DBRWBmC5buPoE4Ncm24H-48" edge="1">
          <mxGeometry relative="1" as="geometry" />
        </mxCell>
        <mxCell id="5aYTDuz0QeQDbrIjLcsq-1" value="False" style="edgeLabel;html=1;align=center;verticalAlign=middle;resizable=0;points=[];" vertex="1" connectable="0" parent="DBRWBmC5buPoE4Ncm24H-49">
          <mxGeometry x="-0.1234" relative="1" as="geometry">
            <mxPoint x="-1" as="offset" />
          </mxGeometry>
        </mxCell>
        <mxCell id="DBRWBmC5buPoE4Ncm24H-38" value="Kode Sandi&amp;nbsp;&lt;div&gt;&amp;lt;99999&lt;/div&gt;" style="strokeWidth=2;html=1;shape=mxgraph.flowchart.decision;whiteSpace=wrap;" parent="1" vertex="1">
          <mxGeometry x="360" y="840" width="100" height="100" as="geometry" />
        </mxCell>
        <mxCell id="DBRWBmC5buPoE4Ncm24H-39" style="edgeStyle=orthogonalEdgeStyle;rounded=0;orthogonalLoop=1;jettySize=auto;html=1;exitX=0.5;exitY=1;exitDx=0;exitDy=0;exitPerimeter=0;entryX=0.5;entryY=0;entryDx=0;entryDy=0;entryPerimeter=0;" parent="1" source="DBRWBmC5buPoE4Ncm24H-35" target="DBRWBmC5buPoE4Ncm24H-38" edge="1">
          <mxGeometry relative="1" as="geometry" />
        </mxCell>
        <mxCell id="DBRWBmC5buPoE4Ncm24H-44" value="True" style="edgeLabel;html=1;align=center;verticalAlign=middle;resizable=0;points=[];" parent="DBRWBmC5buPoE4Ncm24H-39" vertex="1" connectable="0">
          <mxGeometry x="-0.128" y="-2" relative="1" as="geometry">
            <mxPoint as="offset" />
          </mxGeometry>
        </mxCell>
        <mxCell id="DBRWBmC5buPoE4Ncm24H-42" style="edgeStyle=orthogonalEdgeStyle;rounded=0;orthogonalLoop=1;jettySize=auto;html=1;exitX=1;exitY=0.5;exitDx=0;exitDy=0;entryX=1;entryY=0.5;entryDx=0;entryDy=0;" parent="1" source="DBRWBmC5buPoE4Ncm24H-41" target="DBRWBmC5buPoE4Ncm24H-30" edge="1">
          <mxGeometry relative="1" as="geometry">
            <Array as="points">
              <mxPoint x="760" y="740" />
              <mxPoint x="760" y="590" />
            </Array>
          </mxGeometry>
        </mxCell>
        <mxCell id="DBRWBmC5buPoE4Ncm24H-41" value="Output Tampilkan Pesan&lt;div&gt;&quot;Kode Sandi Tidak Valid&quot;&lt;/div&gt;" style="shape=parallelogram;html=1;strokeWidth=2;perimeter=parallelogramPerimeter;whiteSpace=wrap;rounded=1;arcSize=12;size=0.23;" parent="1" vertex="1">
          <mxGeometry x="550" y="710" width="200" height="60" as="geometry" />
        </mxCell>
        <mxCell id="DBRWBmC5buPoE4Ncm24H-50" style="edgeStyle=orthogonalEdgeStyle;rounded=0;orthogonalLoop=1;jettySize=auto;html=1;exitX=1;exitY=0.5;exitDx=0;exitDy=0;entryX=1;entryY=0.5;entryDx=0;entryDy=0;" parent="1" source="DBRWBmC5buPoE4Ncm24H-48" target="DBRWBmC5buPoE4Ncm24H-30" edge="1">
          <mxGeometry relative="1" as="geometry">
            <Array as="points">
              <mxPoint x="760" y="890" />
              <mxPoint x="760" y="590" />
            </Array>
          </mxGeometry>
        </mxCell>
        <mxCell id="DBRWBmC5buPoE4Ncm24H-48" value="Output Tampilkan Pesan&lt;div&gt;&quot;Kode Sandi Tidak Valid&quot;&lt;/div&gt;" style="shape=parallelogram;html=1;strokeWidth=2;perimeter=parallelogramPerimeter;whiteSpace=wrap;rounded=1;arcSize=12;size=0.23;" parent="1" vertex="1">
          <mxGeometry x="540" y="860" width="200" height="60" as="geometry" />
        </mxCell>
        <mxCell id="DBRWBmC5buPoE4Ncm24H-51" value="Input opsi&lt;div&gt;Veritiikasi Kode Sandi&lt;/div&gt;" style="shape=parallelogram;html=1;strokeWidth=2;perimeter=parallelogramPerimeter;whiteSpace=wrap;rounded=1;arcSize=12;size=0.23;" parent="1" vertex="1">
          <mxGeometry x="315" y="1000" width="190" height="60" as="geometry" />
        </mxCell>
        <mxCell id="DBRWBmC5buPoE4Ncm24H-55" style="edgeStyle=orthogonalEdgeStyle;rounded=0;orthogonalLoop=1;jettySize=auto;html=1;exitX=1;exitY=0.5;exitDx=0;exitDy=0;exitPerimeter=0;" parent="1" source="DBRWBmC5buPoE4Ncm24H-52" target="DBRWBmC5buPoE4Ncm24H-54" edge="1">
          <mxGeometry relative="1" as="geometry" />
        </mxCell>
        <mxCell id="DBRWBmC5buPoE4Ncm24H-56" value="True" style="edgeLabel;html=1;align=center;verticalAlign=middle;resizable=0;points=[];" parent="DBRWBmC5buPoE4Ncm24H-55" vertex="1" connectable="0">
          <mxGeometry x="-0.0515" relative="1" as="geometry">
            <mxPoint as="offset" />
          </mxGeometry>
        </mxCell>
        <mxCell id="DBRWBmC5buPoE4Ncm24H-52" value="Opsi == 1" style="strokeWidth=2;html=1;shape=mxgraph.flowchart.decision;whiteSpace=wrap;" parent="1" vertex="1">
          <mxGeometry x="360" y="1120" width="100" height="100" as="geometry" />
        </mxCell>
        <mxCell id="DBRWBmC5buPoE4Ncm24H-53" style="edgeStyle=orthogonalEdgeStyle;rounded=0;orthogonalLoop=1;jettySize=auto;html=1;exitX=0.5;exitY=1;exitDx=0;exitDy=0;entryX=0.507;entryY=0.065;entryDx=0;entryDy=0;entryPerimeter=0;" parent="1" source="DBRWBmC5buPoE4Ncm24H-51" target="DBRWBmC5buPoE4Ncm24H-52" edge="1">
          <mxGeometry relative="1" as="geometry" />
        </mxCell>
        <mxCell id="DBRWBmC5buPoE4Ncm24H-54" value="&lt;br&gt;&lt;div&gt;Mengecek Bilangan Prima&lt;/div&gt;" style="shape=parallelogram;html=1;strokeWidth=2;perimeter=parallelogramPerimeter;whiteSpace=wrap;rounded=1;arcSize=12;size=0.23;" parent="1" vertex="1">
          <mxGeometry x="580" y="1140" width="140" height="60" as="geometry" />
        </mxCell>
        <mxCell id="DBRWBmC5buPoE4Ncm24H-60" style="edgeStyle=orthogonalEdgeStyle;rounded=0;orthogonalLoop=1;jettySize=auto;html=1;exitX=1;exitY=0.5;exitDx=0;exitDy=0;exitPerimeter=0;" parent="1" source="DBRWBmC5buPoE4Ncm24H-57" target="DBRWBmC5buPoE4Ncm24H-59" edge="1">
          <mxGeometry relative="1" as="geometry" />
        </mxCell>
        <mxCell id="DBRWBmC5buPoE4Ncm24H-62" value="True" style="edgeLabel;html=1;align=center;verticalAlign=middle;resizable=0;points=[];" parent="DBRWBmC5buPoE4Ncm24H-60" vertex="1" connectable="0">
          <mxGeometry x="-0.0039" y="2" relative="1" as="geometry">
            <mxPoint as="offset" />
          </mxGeometry>
        </mxCell>
        <mxCell id="DBRWBmC5buPoE4Ncm24H-57" value="Opsi == 2" style="strokeWidth=2;html=1;shape=mxgraph.flowchart.decision;whiteSpace=wrap;" parent="1" vertex="1">
          <mxGeometry x="360" y="1320" width="100" height="100" as="geometry" />
        </mxCell>
        <mxCell id="DBRWBmC5buPoE4Ncm24H-58" style="edgeStyle=orthogonalEdgeStyle;rounded=0;orthogonalLoop=1;jettySize=auto;html=1;exitX=0.5;exitY=1;exitDx=0;exitDy=0;exitPerimeter=0;entryX=0.5;entryY=0;entryDx=0;entryDy=0;entryPerimeter=0;" parent="1" source="DBRWBmC5buPoE4Ncm24H-52" target="DBRWBmC5buPoE4Ncm24H-57" edge="1">
          <mxGeometry relative="1" as="geometry" />
        </mxCell>
        <mxCell id="DBRWBmC5buPoE4Ncm24H-61" value="False" style="edgeLabel;html=1;align=center;verticalAlign=middle;resizable=0;points=[];" parent="DBRWBmC5buPoE4Ncm24H-58" vertex="1" connectable="0">
          <mxGeometry x="-0.0636" relative="1" as="geometry">
            <mxPoint as="offset" />
          </mxGeometry>
        </mxCell>
        <mxCell id="DBRWBmC5buPoE4Ncm24H-59" value="Mengecek Bilangan Habis Dibagi 2 dan 3 Tetapi Tidak Habis Dibagi 5" style="shape=parallelogram;html=1;strokeWidth=2;perimeter=parallelogramPerimeter;whiteSpace=wrap;rounded=1;arcSize=12;size=0.23;" parent="1" vertex="1">
          <mxGeometry x="555" y="1335" width="170" height="70" as="geometry" />
        </mxCell>
        <mxCell id="DBRWBmC5buPoE4Ncm24H-66" style="edgeStyle=orthogonalEdgeStyle;rounded=0;orthogonalLoop=1;jettySize=auto;html=1;exitX=1;exitY=0.5;exitDx=0;exitDy=0;exitPerimeter=0;entryX=0;entryY=0.5;entryDx=0;entryDy=0;" parent="1" source="DBRWBmC5buPoE4Ncm24H-63" target="DBRWBmC5buPoE4Ncm24H-65" edge="1">
          <mxGeometry relative="1" as="geometry" />
        </mxCell>
        <mxCell id="DBRWBmC5buPoE4Ncm24H-68" value="False" style="edgeLabel;html=1;align=center;verticalAlign=middle;resizable=0;points=[];" parent="DBRWBmC5buPoE4Ncm24H-66" vertex="1" connectable="0">
          <mxGeometry x="-0.0826" relative="1" as="geometry">
            <mxPoint as="offset" />
          </mxGeometry>
        </mxCell>
        <mxCell id="DBRWBmC5buPoE4Ncm24H-70" style="edgeStyle=orthogonalEdgeStyle;rounded=0;orthogonalLoop=1;jettySize=auto;html=1;exitX=0.5;exitY=1;exitDx=0;exitDy=0;exitPerimeter=0;entryX=0.5;entryY=0;entryDx=0;entryDy=0;" parent="1" source="DBRWBmC5buPoE4Ncm24H-63" target="DBRWBmC5buPoE4Ncm24H-69" edge="1">
          <mxGeometry relative="1" as="geometry" />
        </mxCell>
        <mxCell id="DBRWBmC5buPoE4Ncm24H-77" value="True" style="edgeLabel;html=1;align=center;verticalAlign=middle;resizable=0;points=[];" parent="DBRWBmC5buPoE4Ncm24H-70" vertex="1" connectable="0">
          <mxGeometry x="-0.115" y="-3" relative="1" as="geometry">
            <mxPoint y="1" as="offset" />
          </mxGeometry>
        </mxCell>
        <mxCell id="DBRWBmC5buPoE4Ncm24H-63" value="Opsi == 3" style="strokeWidth=2;html=1;shape=mxgraph.flowchart.decision;whiteSpace=wrap;" parent="1" vertex="1">
          <mxGeometry x="360" y="1520" width="100" height="100" as="geometry" />
        </mxCell>
        <mxCell id="DBRWBmC5buPoE4Ncm24H-64" style="edgeStyle=orthogonalEdgeStyle;rounded=0;orthogonalLoop=1;jettySize=auto;html=1;exitX=0.5;exitY=1;exitDx=0;exitDy=0;exitPerimeter=0;entryX=0.5;entryY=0;entryDx=0;entryDy=0;entryPerimeter=0;" parent="1" source="DBRWBmC5buPoE4Ncm24H-57" target="DBRWBmC5buPoE4Ncm24H-63" edge="1">
          <mxGeometry relative="1" as="geometry" />
        </mxCell>
        <mxCell id="DBRWBmC5buPoE4Ncm24H-67" value="False" style="edgeLabel;html=1;align=center;verticalAlign=middle;resizable=0;points=[];" parent="DBRWBmC5buPoE4Ncm24H-64" vertex="1" connectable="0">
          <mxGeometry x="-0.2564" relative="1" as="geometry">
            <mxPoint as="offset" />
          </mxGeometry>
        </mxCell>
        <mxCell id="DBRWBmC5buPoE4Ncm24H-76" style="edgeStyle=orthogonalEdgeStyle;rounded=0;orthogonalLoop=1;jettySize=auto;html=1;exitX=1;exitY=0.75;exitDx=0;exitDy=0;entryX=1;entryY=0.5;entryDx=0;entryDy=0;" parent="1" source="DBRWBmC5buPoE4Ncm24H-65" target="DBRWBmC5buPoE4Ncm24H-30" edge="1">
          <mxGeometry relative="1" as="geometry">
            <Array as="points">
              <mxPoint x="840" y="1580" />
              <mxPoint x="840" y="590" />
            </Array>
          </mxGeometry>
        </mxCell>
        <mxCell id="DBRWBmC5buPoE4Ncm24H-65" value="Tidak" style="shape=parallelogram;html=1;strokeWidth=2;perimeter=parallelogramPerimeter;whiteSpace=wrap;rounded=1;arcSize=12;size=0.23;" parent="1" vertex="1">
          <mxGeometry x="560" y="1540" width="130" height="60" as="geometry" />
        </mxCell>
        <mxCell id="DBRWBmC5buPoE4Ncm24H-69" value="Keluar" style="shape=parallelogram;html=1;strokeWidth=2;perimeter=parallelogramPerimeter;whiteSpace=wrap;rounded=1;arcSize=12;size=0.23;" parent="1" vertex="1">
          <mxGeometry x="360" y="1720" width="100" height="60" as="geometry" />
        </mxCell>
        <mxCell id="DBRWBmC5buPoE4Ncm24H-71" value="End" style="strokeWidth=2;html=1;shape=mxgraph.flowchart.start_1;whiteSpace=wrap;" parent="1" vertex="1">
          <mxGeometry x="360" y="1880" width="100" height="60" as="geometry" />
        </mxCell>
        <mxCell id="DBRWBmC5buPoE4Ncm24H-73" style="edgeStyle=orthogonalEdgeStyle;rounded=0;orthogonalLoop=1;jettySize=auto;html=1;exitX=0.5;exitY=1;exitDx=0;exitDy=0;entryX=0.5;entryY=0;entryDx=0;entryDy=0;entryPerimeter=0;" parent="1" source="DBRWBmC5buPoE4Ncm24H-69" target="DBRWBmC5buPoE4Ncm24H-71" edge="1">
          <mxGeometry relative="1" as="geometry" />
        </mxCell>
      </root>
    </mxGraphModel>
  </diagram>
</mxfile>
